0
SECTION
2
HEADER
9
$INSUNITS
70
4
9
$ACADVER
1
AC1014
9
$HANDSEED
5
FFFF
0
ENDSEC
0
SECTION
2
TABLES
0
TABLE
2
VPORT
5
8
100
AcDbSymbolTable
0
ENDTAB
0
TABLE
2
LTYPE
5
5
100
AcDbSymbolTable
0
LTYPE
5
14
100
AcDbSymbolTableRecord
100
AcDbLinetypeTableRecord
2
BYBLOCK
70
0
0
LTYPE
5
15
100
AcDbSymbolTableRecord
100
AcDbLinetypeTableRecord
2
BYLAYER
70
0
0
LTYPE
5
16
100
AcDbSymbolTableRecord
100
AcDbLinetypeTableRecord
2
DASHED
70
0
3
Dashed __ __ __ __ __ __ __ __ __ __ __ __ __ _
72
65
73
2
40
0.75
49
0.5
74
0
49
-0.25
74
0
0
ENDTAB
0
TABLE
2
LAYER
5
2
100
AcDbSymbolTable
70
2
0
LAYER
5
50
100
AcDbSymbolTableRecord
100
AcDbLayerTableRecord
2
0
70
0
62
7
6
CONTINUOUS
0
ENDTAB
0
TABLE
2
STYLE
5
3
100
AcDbSymbolTable
70
1
0
STYLE
5
11
100
AcDbSymbolTableRecord
100
AcDbTextStyleTableRecord
2
STANDARD
70
0
0
ENDTAB
0
TABLE
2
VIEW
5
6
100
AcDbSymbolTable
70
0
0
ENDTAB
0
TABLE
2
UCS
5
7
100
AcDbSymbolTable
70
0
0
ENDTAB
0
TABLE
2
APPID
5
9
100
AcDbSymbolTable
70
2
0
APPID
5
12
100
AcDbSymbolTableRecord
100
AcDbRegAppTableRecord
2
ACAD
70
0
0
ENDTAB
0
TABLE
2
DIMSTYLE
5
A
100
AcDbSymbolTable
70
1
0
ENDTAB
0
TABLE
2
BLOCK_RECORD
5
1
100
AcDbSymbolTable
70
1
0
BLOCK_RECORD
5
1F
100
AcDbSymbolTableRecord
100
AcDbBlockTableRecord
2
*MODEL_SPACE
0
BLOCK_RECORD
5
1B
100
AcDbSymbolTableRecord
100
AcDbBlockTableRecord
2
*PAPER_SPACE
0
ENDTAB
0
ENDSEC
0
SECTION
2
BLOCKS
0
BLOCK
5
20
100
AcDbEntity
100
AcDbBlockBegin
2
*MODEL_SPACE
0
ENDBLK
5
21
100
AcDbEntity
100
AcDbBlockEnd
0
BLOCK
5
1C
100
AcDbEntity
100
AcDbBlockBegin
2
*PAPER_SPACE
0
ENDBLK
5
1D
100
AcDbEntity
100
AcDbBlockEnd
0
ENDSEC
0
SECTION
2
ENTITIES
0
POINT
5
100
100
AcDbEntity
8
0
100
AcDbPoint
10
0
20
0
30
0
0
POINT
5
101
100
AcDbEntity
8
0
100
AcDbPoint
10
0
20
0
30
0
0
POINT
5
102
100
AcDbEntity
8
0
100
AcDbPoint
10
0
20
19
30
0
0
POINT
5
103
100
AcDbEntity
8
0
100
AcDbPoint
10
0
20
50.500000000000007
30
0
0
LINE
5
104
100
AcDbEntity
8
0
100
AcDbLine
10
14.499999999998385
20
16.499999999998959
30
0
11
14.499999999998391
21
-16.500000000001044
31
0
0
LINE
5
105
100
AcDbEntity
8
0
100
AcDbLine
10
14.499999999998391
20
-16.500000000001044
30
0
11
-14.500000000001609
21
-16.500000000001044
31
0
0
LINE
5
106
100
AcDbEntity
8
0
100
AcDbLine
10
-14.500000000001609
20
-16.500000000001044
30
0
11
-14.500000000001611
21
16.499999999998959
31
0
0
LINE
5
107
100
AcDbEntity
8
0
100
AcDbLine
10
-14.500000000001611
20
16.499999999998959
30
0
11
14.499999999998391
21
-16.500000000001044
31
0
6
DASHED
0
LINE
5
108
100
AcDbEntity
8
0
100
AcDbLine
10
14.499999999998385
20
16.499999999998959
30
0
11
-14.500000000001609
21
-16.500000000001044
31
0
6
DASHED
0
LINE
5
109
100
AcDbEntity
8
0
100
AcDbLine
10
3.5000000000000004
20
21.499999999999993
30
0
11
3.5000000000000009
21
16.499999999999996
31
0
0
LINE
5
110
100
AcDbEntity
8
0
100
AcDbLine
10
-3.5
20
16.499999999999996
30
0
11
-3.5
21
21.499999999999993
31
0
0
LINE
5
111
100
AcDbEntity
8
0
100
AcDbLine
10
-3.5
20
21.499999999999993
30
0
11
3.5000000000000009
21
16.499999999999996
31
0
6
DASHED
0
LINE
5
112
100
AcDbEntity
8
0
100
AcDbLine
10
3.5000000000000004
20
21.499999999999993
30
0
11
-3.5
21
16.499999999999996
31
0
6
DASHED
0
LINE
5
113
100
AcDbEntity
8
0
100
AcDbLine
10
-14.500000000001611
20
16.499999999998959
30
0
11
-3.5
21
16.499999999999996
31
0
0
LINE
5
114
100
AcDbEntity
8
0
100
AcDbLine
10
3.5000000000000009
20
16.499999999999996
30
0
11
14.499999999998385
21
16.499999999998959
31
0
0
LINE
5
115
100
AcDbEntity
8
0
100
AcDbLine
10
-11.500000000000007
20
79.5
30
0
11
11.499999999999995
21
79.5
31
0
0
LINE
5
116
100
AcDbEntity
8
0
100
AcDbLine
10
11.499999999999995
20
79.5
30
0
11
11.500000000000005
21
21.499999999999993
31
0
0
LINE
5
117
100
AcDbEntity
8
0
100
AcDbLine
10
-11.500000000000007
20
21.499999999999993
30
0
11
-11.500000000000007
21
79.5
31
0
0
LINE
5
118
100
AcDbEntity
8
0
100
AcDbLine
10
-11.500000000000007
20
79.5
30
0
11
11.500000000000005
21
21.499999999999993
31
0
6
DASHED
0
LINE
5
119
100
AcDbEntity
8
0
100
AcDbLine
10
11.499999999999995
20
79.5
30
0
11
-11.500000000000007
21
21.499999999999993
31
0
6
DASHED
0
LINE
5
120
100
AcDbEntity
8
0
100
AcDbLine
10
11.500000000000005
20
21.499999999999993
30
0
11
3.5000000000000004
21
21.499999999999993
31
0
0
LINE
5
121
100
AcDbEntity
8
0
100
AcDbLine
10
-3.5
20
21.499999999999993
30
0
11
-11.500000000000007
21
21.499999999999993
31
0
0
LINE
5
122
100
AcDbEntity
8
0
100
AcDbLine
10
11.499999999999995
20
21.499999999999993
30
0
11
11.499999999999995
21
79.5
31
0
6
DASHED
0
LINE
5
123
100
AcDbEntity
8
0
100
AcDbLine
10
11.499999999999995
20
79.5
30
0
11
-11.500000000000007
21
79.5
31
0
6
DASHED
0
LINE
5
124
100
AcDbEntity
8
0
100
AcDbLine
10
-11.500000000000007
20
79.5
30
0
11
-11.500000000000007
21
21.499999999999993
31
0
6
DASHED
0
LINE
5
125
100
AcDbEntity
8
0
100
AcDbLine
10
-11.500000000000007
20
21.499999999999993
30
0
11
11.499999999999995
21
21.499999999999993
31
0
6
DASHED
0
SPLINE
5
126
100
AcDbEntity
8
0
100
AcDbSpline
70
0
71
2
72
6
73
3
74
0
42
0.000000001
43
0.0000000001
44
0.0000000001
40
0
40
0
40
0
40
1
40
1
40
1
10
0.039998650550834292
20
42.41636307537555
30
0
10
0.039998650550834292
20
42.539999797940247
30
0
10
0.13454473018645441
20
42.619998767971985
30
0
0
SPLINE
5
127
100
AcDbEntity
8
0
100
AcDbSpline
70
0
71
2
72
6
73
3
74
0
42
0.000000001
43
0.0000000001
44
0.0000000001
40
0
40
0
40
0
40
1
40
1
40
1
10
0.13454473018645441
20
42.619998767971985
30
0
10
0.2145448923110882
20
42.678182438015931
30
0
10
0.29454505443572199
20
42.678182438015931
30
0
0
SPLINE
5
128
100
AcDbEntity
8
0
100
AcDbSpline
70
0
71
2
72
6
73
3
74
0
42
0.000000001
43
0.0000000001
44
0.0000000001
40
0
40
0
40
0
40
1
40
1
40
1
10
0.29454505443572199
20
42.678182438015931
30
0
10
0.42545473575591242
20
42.678182438015931
30
0
10
0.73090827465056574
20
42.467272594571106
30
0
0
SPLINE
5
129
100
AcDbEntity
8
0
100
AcDbSpline
70
0
71
2
72
6
73
3
74
0
42
0.000000001
43
0.0000000001
44
0.0000000001
40
0
40
0
40
0
40
1
40
1
40
1
10
0.73090827465056574
20
42.467272594571106
30
0
10
1.9018176794052044
20
41.710908725857728
30
0
10
2.6581815481185833
20
41.390909269452088
30
0
0
SPLINE
5
130
100
AcDbEntity
8
0
100
AcDbSpline
70
0
71
2
72
6
73
3
74
0
42
0.000000001
43
0.0000000001
44
0.0000000001
40
0
40
0
40
0
40
1
40
1
40
1
10
2.6581815481185833
20
41.390909269452088
30
0
10
3.4363631010055462
20
41.049090936779969
30
0
10
4.2581812143325726
20
40.787272766232483
30
0
0
SPLINE
5
131
100
AcDbEntity
8
0
100
AcDbSpline
70
0
71
2
72
6
73
3
74
0
42
0.000000001
43
0.0000000001
44
0.0000000001
40
0
40
0
40
0
40
1
40
1
40
1
10
4.2581812143325726
20
40.787272766232483
30
0
10
4.6218172311782757
20
40.670909002423279
30
0
10
4.6218172311782757
20
40.42363674938678
30
0
0
SPLINE
5
132
100
AcDbEntity
8
0
100
AcDbSpline
70
0
71
2
72
6
73
3
74
0
42
0.000000001
43
0.0000000001
44
0.0000000001
40
0
40
0
40
0
40
1
40
1
40
1
10
4.6218172311782757
20
40.42363674938678
30
0
10
4.6218172311782757
20
40.278182342648499
30
0
10
4.5054534673690716
20
40.190909221768372
30
0
0
SPLINE
5
133
100
AcDbEntity
8
0
100
AcDbSpline
70
0
71
2
72
6
73
3
74
0
42
0.000000001
43
0.0000000001
44
0.0000000001
40
0
40
0
40
0
40
1
40
1
40
1
10
4.5054534673690716
20
40.190909221768372
30
0
10
4.410908579826347
20
40.110909059643738
30
0
10
4.301817774772636
20
40.110909059643738
30
0
0
SPLINE
5
134
100
AcDbEntity
8
0
100
AcDbSpline
70
0
71
2
72
6
73
3
74
0
42
0.000000001
43
0.0000000001
44
0.0000000001
40
0
40
0
40
0
40
1
40
1
40
1
10
4.301817774772636
20
40.110909059643738
30
0
10
4.0836349725723187
20
40.110909059643738
30
0
10
2.847272515296928
20
40.576362922787659
30
0
0
SPLINE
5
135
100
AcDbEntity
8
0
100
AcDbSpline
70
0
71
2
72
6
73
3
74
0
42
0.000000001
43
0.0000000001
44
0.0000000001
40
0
40
0
40
0
40
1
40
1
40
1
10
2.847272515296928
20
40.576362922787659
30
0
10
1.8727270364761273
20
40.940000131726258
30
0
10
0.69454467296599542
20
41.754545286297791
30
0
0
SPLINE
5
136
100
AcDbEntity
8
0
100
AcDbSpline
70
0
71
2
72
6
73
3
74
0
42
0.000000001
43
0.0000000001
44
0.0000000001
40
0
40
0
40
0
40
1
40
1
40
1
10
0.69454467296599542
20
41.754545286297791
30
0
10
0.30908977985381281
20
42.016363456845276
30
0
10
0.17818129062651789
20
42.147273138165467
30
0
0
SPLINE
5
137
100
AcDbEntity
8
0
100
AcDbSpline
70
0
71
2
72
6
73
3
74
0
42
0.000000001
43
0.0000000001
44
0.0000000001
40
0
40
0
40
0
40
1
40
1
40
1
10
0.17818129062651789
20
42.147273138165467
30
0
10
0.039998650550834292
20
42.278181627392762
30
0
10
0.039998650550834292
20
42.41636307537555
30
0
0
SPLINE
5
138
100
AcDbEntity
8
0
100
AcDbSpline
70
0
71
2
72
6
73
3
74
0
42
0.000000001
43
0.0000000001
44
0.0000000001
40
0
40
0
40
0
40
1
40
1
40
1
10
-2.6581820249557575
20
43.798182323575013
30
0
10
-2.6581820249557575
20
44.125454738736146
30
0
10
-2.323637843132027
20
44.125454738736146
30
0
0
SPLINE
5
139
100
AcDbEntity
8
0
100
AcDbSpline
70
0
71
2
72
6
73
3
74
0
42
0.000000001
43
0.0000000001
44
0.0000000001
40
0
40
0
40
0
40
1
40
1
40
1
10
-2.323637843132027
20
44.125454738736146
30
0
10
-2.0181831121444782
20
44.125454738736146
30
0
10
-1.6472729444503864
20
43.80545409023761
30
0
0
SPLINE
5
140
100
AcDbEntity
8
0
100
AcDbSpline
70
0
71
2
72
6
73
3
74
0
42
0.000000001
43
0.0000000001
44
0.0000000001
40
0
40
0
40
0
40
1
40
1
40
1
10
-1.6472729444503864
20
43.80545409023761
30
0
10
-1.2909098863601765
20
43.499999359250062
30
0
10
-1.2909098863601765
20
43.216364696621888
30
0
0
SPLINE
5
141
100
AcDbEntity
8
0
100
AcDbSpline
70
0
71
2
72
6
73
3
74
0
42
0.000000001
43
0.0000000001
44
0.0000000001
40
0
40
0
40
0
40
1
40
1
40
1
10
-1.2909098863601765
20
43.216364696621888
30
0
10
-1.2909098863601765
20
43.078182056546204
30
0
10
-1.3927277326583942
20
42.990908935666077
30
0
0
SPLINE
5
142
100
AcDbEntity
8
0
100
AcDbSpline
70
0
71
2
72
6
73
3
74
0
42
0.000000001
43
0.0000000001
44
0.0000000001
40
0
40
0
40
0
40
1
40
1
40
1
10
-1.3927277326583942
20
42.990908935666077
30
0
10
-1.4872738122940143
20
42.90363581478595
30
0
10
-1.6254552602768024
20
42.90363581478595
30
0
0
SPLINE
5
143
100
AcDbEntity
8
0
100
AcDbSpline
70
0
71
2
72
6
73
3
74
0
42
0.000000001
43
0.0000000001
44
0.0000000001
40
0
40
0
40
0
40
1
40
1
40
1
10
-1.6254552602768024
20
42.90363581478595
30
0
10
-1.9745453596115192
20
42.90363581478595
30
0
10
-2.367273211479195
20
43.289091899991028
30
0
0
SPLINE
5
144
100
AcDbEntity
8
0
100
AcDbSpline
70
0
71
2
72
6
73
3
74
0
42
0.000000001
43
0.0000000001
44
0.0000000001
40
0
40
0
40
0
40
1
40
1
40
1
10
-2.367273211479195
20
43.289091899991028
30
0
10
-2.6581820249557575
20
43.572726562619202
30
0
10
-2.6581820249557575
20
43.798182323575013
30
0
0
SPLINE
5
145
100
AcDbEntity
8
0
100
AcDbSpline
70
0
71
2
72
6
73
3
74
0
42
0.000000001
43
0.0000000001
44
0.0000000001
40
0
40
0
40
0
40
1
40
1
40
1
10
1.5890899896621624
20
47.725453689694397
30
0
10
1.5890899896621624
20
48.118181541562073
30
0
10
1.9090906381606976
20
48.118181541562073
30
0
0
SPLINE
5
146
100
AcDbEntity
8
0
100
AcDbSpline
70
0
71
2
72
6
73
3
74
0
42
0.000000001
43
0.0000000001
44
0.0000000001
40
0
40
0
40
0
40
1
40
1
40
1
10
1.9090906381606976
20
48.118181541562073
30
0
10
2.1490899324417034
20
48.118181541562073
30
0
10
2.2727266550064007
20
47.75454552471637
30
0
0
SPLINE
5
147
100
AcDbEntity
8
0
100
AcDbSpline
70
0
71
2
72
6
73
3
74
0
42
0.000000001
43
0.0000000001
44
0.0000000001
40
0
40
0
40
0
40
1
40
1
40
1
10
2.2727266550064007
20
47.75454552471637
30
0
10
2.4981812238693157
20
47.129090145230286
30
0
10
3.0799988508224407
20
47.129090145230286
30
0
0
SPLINE
5
148
100
AcDbEntity
8
0
100
AcDbSpline
70
0
71
2
72
6
73
3
74
0
42
0.000000001
43
0.0000000001
44
0.0000000001
40
0
40
0
40
0
40
1
40
1
40
1
10
3.0799988508224407
20
47.129090145230286
30
0
10
3.5454539060592571
20
47.129090145230286
30
0
10
3.8072720766067425
20
47.492726162075989
30
0
0
SPLINE
5
149
100
AcDbEntity
8
0
100
AcDbSpline
70
0
71
2
72
6
73
3
74
0
42
0.000000001
43
0.0000000001
44
0.0000000001
40
0
40
0
40
0
40
1
40
1
40
1
10
3.8072720766067425
20
47.492726162075989
30
0
10
4.0254536867141644
20
47.805455043911927
30
0
10
4.0254536867141644
20
48.285453632473939
30
0
0
SPLINE
5
150
100
AcDbEntity
8
0
100
AcDbSpline
70
0
71
2
72
6
73
3
74
0
42
0.000000001
43
0.0000000001
44
0.0000000001
40
0
40
0
40
0
40
1
40
1
40
1
10
4.0254536867141644
20
48.285453632473939
30
0
10
4.0254536867141644
20
49.245455577969544
30
0
10
3.4654537439346234
20
49.965453460812562
30
0
0
SPLINE
5
151
100
AcDbEntity
8
0
100
AcDbSpline
70
0
71
2
72
6
73
3
74
0
42
0.000000001
43
0.0000000001
44
0.0000000001
40
0
40
0
40
0
40
1
40
1
40
1
10
3.4654537439346234
20
49.965453460812562
30
0
10
3.1090906858444134
20
50.416362598538392
30
0
10
2.5636354684829632
20
50.416362598538392
30
0
0
SPLINE
5
152
100
AcDbEntity
8
0
100
AcDbSpline
70
0
71
2
72
6
73
3
74
0
42
0.000000001
43
0.0000000001
44
0.0000000001
40
0
40
0
40
0
40
1
40
1
40
1
10
2.5636354684829632
20
50.416362598538392
30
0
10
2.2290900945663372
20
50.416362598538392
30
0
10
1.9599989652633587
20
50.285454109311097
30
0
0
SPLINE
5
153
100
AcDbEntity
8
0
100
AcDbSpline
70
0
71
2
72
6
73
3
74
0
42
0.000000001
43
0.0000000001
44
0.0000000001
40
0
40
0
40
0
40
1
40
1
40
1
10
1.9599989652633587
20
50.285454109311097
30
0
10
1.683634877204887
20
50.147273853421204
30
0
10
1.2618175745010296
20
49.863636806607239
30
0
0
SPLINE
5
154
100
AcDbEntity
8
0
100
AcDbSpline
70
0
71
2
72
6
73
3
74
0
42
0.000000001
43
0.0000000001
44
0.0000000001
40
0
40
0
40
0
40
1
40
1
40
1
10
1.2618175745010296
20
49.863636806607239
30
0
10
0.60727155208586847
20
49.427273586392396
30
0
10
0.069090485572806948
20
49.129090622067444
30
0
0
SPLINE
5
155
100
AcDbEntity
8
0
100
AcDbSpline
70
0
71
2
72
6
73
3
74
0
42
0.000000001
43
0.0000000001
44
0.0000000001
40
0
40
0
40
0
40
1
40
1
40
1
10
0.069090485572806948
20
49.129090622067444
30
0
10
-0.52727305889130438
20
48.794544056057923
30
0
10
-1.1018189191818317
20
48.794544056057923
30
0
0
SPLINE
5
156
100
AcDbEntity
8
0
100
AcDbSpline
70
0
71
2
72
6
73
3
74
0
42
0.000000001
43
0.0000000001
44
0.0000000001
40
0
40
0
40
0
40
1
40
1
40
1
10
-1.1018189191818317
20
48.794544056057923
30
0
10
-2.4618180990219196
20
48.794544056057923
30
0
10
-3.6472734212875446
20
50.139999702572815
30
0
0
SPLINE
5
157
100
AcDbEntity
8
0
100
AcDbSpline
70
0
71
2
72
6
73
3
74
0
42
0.000000001
43
0.0000000001
44
0.0000000001
40
0
40
0
40
0
40
1
40
1
40
1
10
-3.6472734212875446
20
50.139999702572815
30
0
10
-4.2654552459716877
20
50.852725818753235
30
0
10
-4.6509095430374225
20
51.710908725857728
30
0
0
SPLINE
5
158
100
AcDbEntity
8
0
100
AcDbSpline
70
0
71
2
72
6
73
3
74
0
42
0.000000001
43
0.0000000001
44
0.0000000001
40
0
40
0
40
0
40
1
40
1
40
1
10
-4.6509095430374225
20
51.710908725857728
30
0
10
-4.9636372327804645
20
52.423637226223939
30
0
10
-4.9636372327804645
20
53.085453823208802
30
0
0
SPLINE
5
159
100
AcDbEntity
8
0
100
AcDbSpline
70
0
71
2
72
6
73
3
74
0
42
0.000000001
43
0.0000000001
44
0.0000000001
40
0
40
0
40
0
40
1
40
1
40
1
10
-4.9636372327804645
20
53.085453823208802
30
0
10
-4.9636372327804645
20
53.514545276761048
30
0
10
-4.7381826639175495
20
53.812725856900208
30
0
0
SPLINE
5
160
100
AcDbEntity
8
0
100
AcDbSpline
70
0
71
2
72
6
73
3
74
0
42
0.000000001
43
0.0000000001
44
0.0000000001
40
0
40
0
40
0
40
1
40
1
40
1
10
-4.7381826639175495
20
53.812725856900208
30
0
10
-4.469091534614571
20
54.176361873745911
30
0
10
-4.0036376714706501
20
54.176361873745911
30
0
0
SPLINE
5
161
100
AcDbEntity
8
0
100
AcDbSpline
70
0
71
2
72
6
73
3
74
0
42
0.000000001
43
0.0000000001
44
0.0000000001
40
0
40
0
40
0
40
1
40
1
40
1
10
-4.0036376714706501
20
54.176361873745911
30
0
10
-3.2763644456863483
20
54.176361873745911
30
0
10
-2.432728648185738
20
53.390908554196351
30
0
0
SPLINE
5
162
100
AcDbEntity
8
0
100
AcDbSpline
70
0
71
2
72
6
73
3
74
0
42
0.000000001
43
0.0000000001
44
0.0000000001
40
0
40
0
40
0
40
1
40
1
40
1
10
-2.432728648185738
20
53.390908554196351
30
0
10
-1.6400011777877888
20
52.649090602993958
30
0
10
-1.138182520866402
20
51.659999206662171
30
0
0
SPLINE
5
163
100
AcDbEntity
8
0
100
AcDbSpline
70
0
71
2
72
6
73
3
74
0
42
0.000000001
43
0.0000000001
44
0.0000000001
40
0
40
0
40
0
40
1
40
1
40
1
10
-1.138182520866402
20
51.659999206662171
30
0
10
-0.89090907573700751
20
51.165454700589173
30
0
10
-0.89090907573700751
20
50.910909488797181
30
0
0
SPLINE
5
164
100
AcDbEntity
8
0
100
AcDbSpline
70
0
71
2
72
6
73
3
74
0
42
0.000000001
43
0.0000000001
44
0.0000000001
40
0
40
0
40
0
40
1
40
1
40
1
10
-0.89090907573700751
20
50.910909488797181
30
0
10
-0.89090907573700751
20
50.743635013699524
30
0
10
-1.0290917158126911
20
50.61272652447223
30
0
0
SPLINE
5
165
100
AcDbEntity
8
0
100
AcDbSpline
70
0
71
2
72
6
73
3
74
0
42
0.000000001
43
0.0000000001
44
0.0000000001
40
0
40
0
40
0
40
1
40
1
40
1
10
-1.0290917158126911
20
50.61272652447223
30
0
10
-1.1236366033554157
20
50.525453403592103
30
0
10
-1.2400015592575153
20
50.525453403592103
30
0
0
SPLINE
5
166
100
AcDbEntity
8
0
100
AcDbSpline
70
0
71
2
72
6
73
3
74
0
42
0.000000001
43
0.0000000001
44
0.0000000001
40
0
40
0
40
0
40
1
40
1
40
1
10
-1.2400015592575153
20
50.525453403592103
30
0
10
-1.5090914964675983
20
50.525453403592103
30
0
10
-1.6763647794723591
20
51.005454376339905
30
0
0
SPLINE
5
167
100
AcDbEntity
8
0
100
AcDbSpline
70
0
71
2
72
6
73
3
74
0
42
0.000000001
43
0.0000000001
44
0.0000000001
40
0
40
0
40
0
40
1
40
1
40
1
10
-1.6763647794723591
20
51.005454376339905
30
0
10
-1.9890912771225056
20
51.885454967617981
30
0
10
-2.5563641786575397
20
52.561817482113831
30
0
0
SPLINE
5
168
100
AcDbEntity
8
0
100
AcDbSpline
70
0
71
2
72
6
73
3
74
0
42
0.000000001
43
0.0000000001
44
0.0000000001
40
0
40
0
40
0
40
1
40
1
40
1
10
-2.5563641786575397
20
52.561817482113831
30
0
10
-3.2836374044418415
20
53.43454630672931
30
0
10
-3.8290914297103962
20
53.43454630672931
30
0
0
SPLINE
5
169
100
AcDbEntity
8
0
100
AcDbSpline
70
0
71
2
72
6
73
3
74
0
42
0.000000001
43
0.0000000001
44
0.0000000001
40
0
40
0
40
0
40
1
40
1
40
1
10
-3.8290914297103962
20
53.43454630672931
30
0
10
-4.0400012731552204
20
53.43454630672931
30
0
10
-4.1709097623825153
20
53.260000064969056
30
0
0
SPLINE
5
170
100
AcDbEntity
8
0
100
AcDbSpline
70
0
71
2
72
6
73
3
74
0
42
0.000000001
43
0.0000000001
44
0.0000000001
40
0
40
0
40
0
40
1
40
1
40
1
10
-4.1709097623825153
20
53.260000064969056
30
0
10
-4.2727282047271808
20
53.121817424893372
30
0
10
-4.2727282047271808
20
52.932727649807923
30
0
0
SPLINE
5
171
100
AcDbEntity
8
0
100
AcDbSpline
70
0
71
2
72
6
73
3
74
0
42
0.000000001
43
0.0000000001
44
0.0000000001
40
0
40
0
40
0
40
1
40
1
40
1
10
-4.2727282047271808
20
52.932727649807923
30
0
10
-4.2727282047271808
20
52.430908992886536
30
0
10
-3.8872727155685505
20
51.674545124173157
30
0
0
SPLINE
5
172
100
AcDbEntity
8
0
100
AcDbSpline
70
0
71
2
72
6
73
3
74
0
42
0.000000001
43
0.0000000001
44
0.0000000001
40
0
40
0
40
0
40
1
40
1
40
1
10
-3.8872727155685505
20
51.674545124173157
30
0
10
-3.3709105253219684
20
50.656364277005189
30
0
10
-2.5563641786575397
20
50.074546650052064
30
0
0
SPLINE
5
173
100
AcDbEntity
8
0
100
AcDbSpline
70
0
71
2
72
6
73
3
74
0
42
0.000000001
43
0.0000000001
44
0.0000000001
40
0
40
0
40
0
40
1
40
1
40
1
10
-2.5563641786575397
20
50.074546650052064
30
0
10
-1.8509098291397175
20
49.565453842282288
30
0
10
-1.1818190813064655
20
49.565453842282288
30
0
0
SPLINE
5
174
100
AcDbEntity
8
0
100
AcDbSpline
70
0
71
2
72
6
73
3
74
0
42
0.000000001
43
0.0000000001
44
0.0000000001
40
0
40
0
40
0
40
1
40
1
40
1
10
-1.1818190813064655
20
49.565453842282288
30
0
10
-0.69454634189606512
20
49.565453842282288
30
0
10
-0.17818295955658758
20
49.834544971585267
30
0
0
SPLINE
5
175
100
AcDbEntity
8
0
100
AcDbSpline
70
0
71
2
72
6
73
3
74
0
42
0.000000001
43
0.0000000001
44
0.0000000001
40
0
40
0
40
0
40
1
40
1
40
1
10
-0.17818295955658758
20
49.834544971585267
30
0
10
0.23636257648467218
20
50.059998348355286
30
0
10
0.75999891757964289
20
50.409090831875794
30
0
0
SPLINE
5
176
100
AcDbEntity
8
0
100
AcDbSpline
70
0
71
2
72
6
73
3
74
0
42
0.000000001
43
0.0000000001
44
0.0000000001
40
0
40
0
40
0
40
1
40
1
40
1
10
0.75999891757964289
20
50.409090831875794
30
0
10
1.2618175745010296
20
50.743635013699524
30
0
10
1.6909078359603802
20
50.976362541317933
30
0
0
SPLINE
5
177
100
AcDbEntity
8
0
100
AcDbSpline
70
0
71
2
72
6
73
3
74
0
42
0.000000001
43
0.0000000001
44
0.0000000001
40
0
40
0
40
0
40
1
40
1
40
1
10
1.6909078359603802
20
50.976362541317933
30
0
10
2.1999994516372601
20
51.245453670620911
30
0
10
2.643635630607597
20
51.245453670620911
30
0
0
SPLINE
5
178
100
AcDbEntity
8
0
100
AcDbSpline
70
0
71
2
72
6
73
3
74
0
42
0.000000001
43
0.0000000001
44
0.0000000001
40
0
40
0
40
0
40
1
40
1
40
1
10
2.643635630607597
20
51.245453670620911
30
0
10
3.5018173456191937
20
51.245453670620911
30
0
10
4.1636351346969525
20
50.263636425137513
30
0
0
SPLINE
5
179
100
AcDbEntity
8
0
100
AcDbSpline
70
0
71
2
72
6
73
3
74
0
42
0.000000001
43
0.0000000001
44
0.0000000001
40
0
40
0
40
0
40
1
40
1
40
1
10
4.1636351346969525
20
50.263636425137513
30
0
10
4.7163633108138958
20
49.427273586392396
30
0
10
4.7163633108138958
20
48.372726753354065
30
0
0
SPLINE
5
180
100
AcDbEntity
8
0
100
AcDbSpline
70
0
71
2
72
6
73
3
74
0
42
0.000000001
43
0.0000000001
44
0.0000000001
40
0
40
0
40
0
40
1
40
1
40
1
10
4.7163633108138958
20
48.372726753354065
30
0
10
4.7163633108138958
20
47.332728222012513
30
0
10
4.1418174505233685
20
46.743636444210999
30
0
0
SPLINE
5
181
100
AcDbEntity
8
0
100
AcDbSpline
70
0
71
2
72
6
73
3
74
0
42
0.000000001
43
0.0000000001
44
0.0000000001
40
0
40
0
40
0
40
1
40
1
40
1
10
4.1418174505233685
20
46.743636444210999
30
0
10
3.7054542303085247
20
46.299999073147767
30
0
10
3.1381813287734905
20
46.299999073147767
30
0
0
SPLINE
5
182
100
AcDbEntity
8
0
100
AcDbSpline
70
0
71
2
72
6
73
3
74
0
42
0.000000001
43
0.0000000001
44
0.0000000001
40
0
40
0
40
0
40
1
40
1
40
1
10
3.1381813287734905
20
46.299999073147767
30
0
10
2.5054541826248089
20
46.299999073147767
30
0
10
2.0763627290725628
20
46.721818760037415
30
0
0
SPLINE
5
183
100
AcDbEntity
8
0
100
AcDbSpline
70
0
71
2
72
6
73
3
74
0
42
0.000000001
43
0.0000000001
44
0.0000000001
40
0
40
0
40
0
40
1
40
1
40
1
10
2.0763627290725628
20
46.721818760037415
30
0
10
1.8145445585250775
20
46.976363971829407
30
0
10
1.683634877204887
20
47.325454071164124
30
0
0
SPLINE
5
184
100
AcDbEntity
8
0
100
AcDbSpline
70
0
71
2
72
6
73
3
74
0
42
0.000000001
43
0.0000000001
44
0.0000000001
40
0
40
0
40
0
40
1
40
1
40
1
10
1.683634877204887
20
47.325454071164124
30
0
10
1.5890899896621624
20
47.56545336544513
30
0
10
1.5890899896621624
20
47.725453689694397
30
0
0
SPLINE
5
185
100
AcDbEntity
8
0
100
AcDbSpline
70
0
71
2
72
6
73
3
74
0
42
0.000000001
43
0.0000000001
44
0.0000000001
40
0
40
0
40
0
40
1
40
1
40
1
10
0.53454434871672785
20
54.154544189572327
30
0
10
0.34545338153838312
20
54.452727153897278
30
0
10
0.27272617816924249
20
54.59818156063556
30
0
0
SPLINE
5
186
100
AcDbEntity
8
0
100
AcDbSpline
70
0
71
2
72
6
73
3
74
0
42
0.000000001
43
0.0000000001
44
0.0000000001
40
0
40
0
40
0
40
1
40
1
40
1
10
0.27272617816924249
20
54.59818156063556
30
0
10
0.12727177143096124
20
54.89636214077472
30
0
10
0.12727177143096124
20
55.179999187588685
30
0
0
SPLINE
5
187
100
AcDbEntity
8
0
100
AcDbSpline
70
0
71
2
72
6
73
3
74
0
42
0.000000001
43
0.0000000001
44
0.0000000001
40
0
40
0
40
0
40
1
40
1
40
1
10
0.12727177143096124
20
55.179999187588685
30
0
10
0.12727177143096124
20
55.49999983608722
30
0
10
0.31272685527800714
20
55.659997776150696
30
0
0
SPLINE
5
188
100
AcDbEntity
8
0
100
AcDbSpline
70
0
71
2
72
6
73
3
74
0
42
0.000000001
43
0.0000000001
44
0.0000000001
40
0
40
0
40
0
40
1
40
1
40
1
10
0.31272685527800714
20
55.659997776150696
30
0
10
0.49818074703215753
20
55.819998100399964
30
0
10
0.86908972263335382
20
55.819998100399964
30
0
0
SPLINE
5
189
100
AcDbEntity
8
0
100
AcDbSpline
70
0
71
2
72
6
73
3
74
0
42
0.000000001
43
0.0000000001
44
0.0000000001
40
0
40
0
40
0
40
1
40
1
40
1
10
0.86908972263335382
20
55.819998100399964
30
0
10
1.3781813383102337
20
55.819998100399964
30
0
10
2.0909086465835491
20
55.463636234402649
30
0
0
SPLINE
5
190
100
AcDbEntity
8
0
100
AcDbSpline
70
0
71
2
72
6
73
3
74
0
42
0.000000001
43
0.0000000001
44
0.0000000001
40
0
40
0
40
0
40
1
40
1
40
1
10
2.0909086465835491
20
55.463636234402649
30
0
10
3.2181814908981243
20
54.910908058285706
30
0
10
3.8654533624648968
20
54.125454738736146
30
0
0
SPLINE
5
191
100
AcDbEntity
8
0
100
AcDbSpline
70
0
71
2
72
6
73
3
74
0
42
0.000000001
43
0.0000000001
44
0.0000000001
40
0
40
0
40
0
40
1
40
1
40
1
10
3.8654533624648968
20
54.125454738736146
30
0
10
4.410908579826347
20
53.463635757565491
30
0
10
4.410908579826347
20
52.881815746426575
30
0
0
SPLINE
5
192
100
AcDbEntity
8
0
100
AcDbSpline
70
0
71
2
72
6
73
3
74
0
42
0.000000001
43
0.0000000001
44
0.0000000001
40
0
40
0
40
0
40
1
40
1
40
1
10
4.410908579826347
20
52.881815746426575
30
0
10
4.410908579826347
20
52.561817482113831
30
0
10
4.163636326789848
20
52.249090984463685
30
0
0
SPLINE
5
193
100
AcDbEntity
8
0
100
AcDbSpline
70
0
71
2
72
6
73
3
74
0
42
0.000000001
43
0.0000000001
44
0.0000000001
40
0
40
0
40
0
40
1
40
1
40
1
10
4.163636326789848
20
52.249090984463685
30
0
10
6.1781803369522015
20
51.252725437283509
30
0
10
8.2727257013320852
20
50.467272117733948
30
0
0
SPLINE
5
194
100
AcDbEntity
8
0
100
AcDbSpline
70
0
71
2
72
6
73
3
74
0
42
0.000000001
43
0.0000000001
44
0.0000000001
40
0
40
0
40
0
40
1
40
1
40
1
10
8.2727257013320852
20
50.467272117733948
30
0
10
8.7745443582534719
20
50.300000026822083
30
0
10
8.7745443582534719
20
50.074544265866272
30
0
0
SPLINE
5
195
100
AcDbEntity
8
0
100
AcDbSpline
70
0
71
2
72
6
73
3
74
0
42
0.000000001
43
0.0000000001
44
0.0000000001
40
0
40
0
40
0
40
1
40
1
40
1
10
8.7745443582534719
20
50.074544265866272
30
0
10
8.7745443582534719
20
49.965453460812562
30
0
10
8.6290899515151906
20
49.856362655758851
30
0
0
SPLINE
5
196
100
AcDbEntity
8
0
100
AcDbSpline
70
0
71
2
72
6
73
3
74
0
42
0.000000001
43
0.0000000001
44
0.0000000001
40
0
40
0
40
0
40
1
40
1
40
1
10
8.6290899515151906
20
49.856362655758851
30
0
10
8.5272709131240774
20
49.776361301541321
30
0
10
8.4036365747451711
20
49.776361301541321
30
0
0
SPLINE
5
197
100
AcDbEntity
8
0
100
AcDbSpline
70
0
71
2
72
6
73
3
74
0
42
0.000000001
43
0.0000000001
44
0.0000000001
40
0
40
0
40
0
40
1
40
1
40
1
10
8.4036365747451711
20
49.776361301541321
30
0
10
8.0109087228774953
20
49.776361301541321
30
0
10
5.8509079217910687
20
50.736363247036927
30
0
0
SPLINE
5
198
100
AcDbEntity
8
0
100
AcDbSpline
70
0
71
2
72
6
73
3
74
0
42
0.000000001
43
0.0000000001
44
0.0000000001
40
0
40
0
40
0
40
1
40
1
40
1
10
5.8509079217910687
20
50.736363247036927
30
0
10
2.5199989080428997
20
52.219999149441712
30
0
10
0.31636273860930597
20
53.550908878445618
30
0
0
SPLINE
5
199
100
AcDbEntity
8
0
100
AcDbSpline
70
0
71
2
72
6
73
3
74
0
42
0.000000001
43
0.0000000001
44
0.0000000001
40
0
40
0
40
0
40
1
40
1
40
1
10
0.31636273860930597
20
53.550908878445618
30
0
10
-0.14909112453461493
20
53.827271774411194
30
0
10
-0.32363736629486883
20
53.921816661953919
30
0
0
SPLINE
5
200
100
AcDbEntity
8
0
100
AcDbSpline
70
0
71
2
72
6
73
3
74
0
42
0.000000001
43
0.0000000001
44
0.0000000001
40
0
40
0
40
0
40
1
40
1
40
1
10
-0.32363736629486883
20
53.921816661953919
30
0
10
-0.7963641881942829
20
54.176361873745911
30
0
10
-0.7963641881942829
20
54.416363552212708
30
0
0
SPLINE
5
201
100
AcDbEntity
8
0
100
AcDbSpline
70
0
71
2
72
6
73
3
74
0
42
0.000000001
43
0.0000000001
44
0.0000000001
40
0
40
0
40
0
40
1
40
1
40
1
10
-0.7963641881942829
20
54.416363552212708
30
0
10
-0.7963641881942829
20
54.663634613156312
30
0
10
-0.49818241596222723
20
54.663634613156312
30
0
0
SPLINE
5
202
100
AcDbEntity
8
0
100
AcDbSpline
70
0
71
2
72
6
73
3
74
0
42
0.000000001
43
0.0000000001
44
0.0000000001
40
0
40
0
40
0
40
1
40
1
40
1
10
-0.49818241596222723
20
54.663634613156312
30
0
10
-0.33090913295746649
20
54.663634613156312
30
0
10
-0.047273278236397154
20
54.489090755581849
30
0
0
SPLINE
5
203
100
AcDbEntity
8
0
100
AcDbSpline
70
0
71
2
72
6
73
3
74
0
42
0.000000001
43
0.0000000001
44
0.0000000001
40
0
40
0
40
0
40
1
40
1
40
1
10
-0.047273278236397154
20
54.489090755581849
30
0
10
0.31636273860930597
20
54.278180912137024
30
0
10
0.53454434871672785
20
54.154544189572327
30
0
0
SPLINE
5
204
100
AcDbEntity
8
0
100
AcDbSpline
70
0
71
2
72
6
73
3
74
0
42
0.000000001
43
0.0000000001
44
0.0000000001
40
0
40
0
40
0
40
1
40
1
40
1
10
3.5527268648147503
20
52.518179729580872
30
0
10
3.7199989557266155
20
52.67818005383014
30
0
10
3.7199989557266155
20
52.918179348111146
30
0
0
SPLINE
5
205
100
AcDbEntity
8
0
100
AcDbSpline
70
0
71
2
72
6
73
3
74
0
42
0.000000001
43
0.0000000001
44
0.0000000001
40
0
40
0
40
0
40
1
40
1
40
1
10
3.7199989557266155
20
52.918179348111146
30
0
10
3.7199989557266155
20
53.594544246792786
30
0
10
2.5199989080428997
20
54.416363552212708
30
0
0
SPLINE
5
206
100
AcDbEntity
8
0
100
AcDbSpline
70
0
71
2
72
6
73
3
74
0
42
0.000000001
43
0.0000000001
44
0.0000000001
40
0
40
0
40
0
40
1
40
1
40
1
10
2.5199989080428997
20
54.416363552212708
30
0
10
2.0763627290725628
20
54.721815899014466
30
0
10
1.6109088659286419
20
54.903633907437317
30
0
0
SPLINE
5
207
100
AcDbEntity
8
0
100
AcDbSpline
70
0
71
2
72
6
73
3
74
0
42
0.000000001
43
0.0000000001
44
0.0000000001
40
0
40
0
40
0
40
1
40
1
40
1
10
1.6109088659286419
20
54.903633907437317
30
0
10
1.2399998903274456
20
55.049088314175599
30
0
10
1.0509089231491009
20
55.049088314175599
30
0
0
SPLINE
5
208
100
AcDbEntity
8
0
100
AcDbSpline
70
0
71
2
72
6
73
3
74
0
42
0.000000001
43
0.0000000001
44
0.0000000001
40
0
40
0
40
0
40
1
40
1
40
1
10
1.0509089231491009
20
55.049088314175599
30
0
10
0.91999924182891046
20
55.049088314175599
30
0
10
0.854544997215263
20
54.987271144986146
30
0
0
SPLINE
5
209
100
AcDbEntity
8
0
100
AcDbSpline
70
0
71
2
72
6
73
3
74
0
42
0.000000001
43
0.0000000001
44
0.0000000001
40
0
40
0
40
0
40
1
40
1
40
1
10
0.854544997215263
20
54.987271144986146
30
0
10
0.78909075260161554
20
54.925453975796692
30
0
10
0.78909075260161554
20
54.794543102383606
30
0
0
SPLINE
5
210
100
AcDbEntity
8
0
100
AcDbSpline
70
0
71
2
72
6
73
3
74
0
42
0.000000001
43
0.0000000001
44
0.0000000001
40
0
40
0
40
0
40
1
40
1
40
1
10
0.78909075260161554
20
54.794543102383606
30
0
10
0.78909075260161554
20
54.452727153897278
30
0
10
1.2618175745010296
20
53.958180263638489
30
0
0
SPLINE
5
211
100
AcDbEntity
8
0
100
AcDbSpline
70
0
71
2
72
6
73
3
74
0
42
0.000000001
43
0.0000000001
44
0.0000000001
40
0
40
0
40
0
40
1
40
1
40
1
10
1.2618175745010296
20
53.958180263638489
30
0
10
1.7199996709823528
20
53.485453441739075
30
0
10
2.5490907430648724
20
53.049090221524231
30
0
0
SPLINE
5
212
100
AcDbEntity
8
0
100
AcDbSpline
70
0
71
2
72
6
73
3
74
0
42
0.000000001
43
0.0000000001
44
0.0000000001
40
0
40
0
40
0
40
1
40
1
40
1
10
2.5490907430648724
20
53.049090221524231
30
0
10
3.3127263784408489
20
52.649090602993958
30
0
10
3.5527268648147503
20
52.518179729580872
30
0
0
SPLINE
5
213
100
AcDbEntity
8
0
100
AcDbSpline
70
0
71
2
72
6
73
3
74
0
42
0.000000001
43
0.0000000001
44
0.0000000001
40
0
40
0
40
0
40
1
40
1
40
1
10
2.3599985837936321
20
58.598180130124085
30
0
10
3.1236354112625042
20
57.950907066464417
30
0
10
3.4945443868637005
20
57.56545336544513
30
0
0
SPLINE
5
214
100
AcDbEntity
8
0
100
AcDbSpline
70
0
71
2
72
6
73
3
74
0
42
0.000000001
43
0.0000000001
44
0.0000000001
40
0
40
0
40
0
40
1
40
1
40
1
10
3.4945443868637005
20
57.56545336544513
30
0
10
4.2218176126480023
20
56.801817730069153
30
0
10
4.2218176126480023
20
56.292727306485169
30
0
0
SPLINE
5
215
100
AcDbEntity
8
0
100
AcDbSpline
70
0
71
2
72
6
73
3
74
0
42
0.000000001
43
0.0000000001
44
0.0000000001
40
0
40
0
40
0
40
1
40
1
40
1
10
4.2218176126480023
20
56.292727306485169
30
0
10
4.2218176126480023
20
56.045453861355774
30
0
10
4.0399996042251507
20
55.899999454617493
30
0
0
SPLINE
5
216
100
AcDbEntity
8
0
100
AcDbSpline
70
0
71
2
72
6
73
3
74
0
42
0.000000001
43
0.0000000001
44
0.0000000001
40
0
40
0
40
0
40
1
40
1
40
1
10
4.0399996042251507
20
55.899999454617493
30
0
10
3.8945451974868694
20
55.790908649563782
30
0
10
3.6763623952865521
20
55.790908649563782
30
0
0
SPLINE
5
217
100
AcDbEntity
8
0
100
AcDbSpline
70
0
71
2
72
6
73
3
74
0
42
0.000000001
43
0.0000000001
44
0.0000000001
40
0
40
0
40
0
40
1
40
1
40
1
10
3.6763623952865521
20
55.790908649563782
30
0
10
2.890907883644096
20
55.790908649563782
30
0
10
1.5890899896621624
20
56.721816375851624
30
0
0
SPLINE
5
218
100
AcDbEntity
8
0
100
AcDbSpline
70
0
71
2
72
6
73
3
74
0
42
0.000000001
43
0.0000000001
44
0.0000000001
40
0
40
0
40
0
40
1
40
1
40
1
10
1.5890899896621624
20
56.721816375851624
30
0
10
0.26545321941374933
20
57.667272403836243
30
0
10
0.26545321941374933
20
58.089089706540101
30
0
0
SPLINE
5
219
100
AcDbEntity
8
0
100
AcDbSpline
70
0
71
2
72
6
73
3
74
0
42
0.000000001
43
0.0000000001
44
0.0000000001
40
0
40
0
40
0
40
1
40
1
40
1
10
0.26545321941374933
20
58.089089706540101
30
0
10
0.26545321941374933
20
58.2054546624422
30
0
10
0.36727225780486261
20
58.292725399136536
30
0
0
SPLINE
5
220
100
AcDbEntity
8
0
100
AcDbSpline
70
0
71
2
72
6
73
3
74
0
42
0.000000001
43
0.0000000001
44
0.0000000001
40
0
40
0
40
0
40
1
40
1
40
1
10
0.36727225780486261
20
58.292725399136536
30
0
10
0.4472724199294964
20
58.372724369168274
30
0
10
0.55636322498320734
20
58.372724369168274
30
0
0
SPLINE
5
221
100
AcDbEntity
8
0
100
AcDbSpline
70
0
71
2
72
6
73
3
74
0
42
0.000000001
43
0.0000000001
44
0.0000000001
40
0
40
0
40
0
40
1
40
1
40
1
10
0.55636322498320734
20
58.372724369168274
30
0
10
0.71636235713957941
20
58.372724369168274
30
0
10
0.83636319637297785
20
58.289089515805237
30
0
0
SPLINE
5
222
100
AcDbEntity
8
0
100
AcDbSpline
70
0
71
2
72
6
73
3
74
0
42
0.000000001
43
0.0000000001
44
0.0000000001
40
0
40
0
40
0
40
1
40
1
40
1
10
0.83636319637297785
20
58.289089515805237
30
0
10
0.95636284351348078
20
58.2054546624422
30
0
10
1.3709083795547405
20
57.812726810574524
30
0
0
SPLINE
5
223
100
AcDbEntity
8
0
100
AcDbSpline
70
0
71
2
72
6
73
3
74
0
42
0.000000001
43
0.0000000001
44
0.0000000001
40
0
40
0
40
0
40
1
40
1
40
1
10
1.3709083795547405
20
57.812726810574524
30
0
10
1.7999986410140911
20
57.398178890347474
30
0
10
2.3018172979354778
20
57.049091175198548
30
0
0
SPLINE
5
224
100
AcDbEntity
8
0
100
AcDbSpline
70
0
71
2
72
6
73
3
74
0
42
0.000000001
43
0.0000000001
44
0.0000000001
40
0
40
0
40
0
40
1
40
1
40
1
10
2.3018172979354778
20
57.049091175198548
30
0
10
2.869090199470512
20
56.649089172482483
30
0
10
3.1309083700179974
20
56.649089172482483
30
0
0
SPLINE
5
225
100
AcDbEntity
8
0
100
AcDbSpline
70
0
71
2
72
6
73
3
74
0
42
0.000000001
43
0.0000000001
44
0.0000000001
40
0
40
0
40
0
40
1
40
1
40
1
10
3.1309083700179974
20
56.649089172482483
30
0
10
3.2836357355117718
20
56.649089172482483
30
0
10
3.2836357355117718
20
56.794543579220765
30
0
0
SPLINE
5
226
100
AcDbEntity
8
0
100
AcDbSpline
70
0
71
2
72
6
73
3
74
0
42
0.000000001
43
0.0000000001
44
0.0000000001
40
0
40
0
40
0
40
1
40
1
40
1
10
3.2836357355117718
20
56.794543579220765
30
0
10
3.2836357355117718
20
57.085454776883118
30
0
10
2.4909082651138226
20
57.885454013943665
30
0
0
SPLINE
5
227
100
AcDbEntity
8
0
100
AcDbSpline
70
0
71
2
72
6
73
3
74
0
42
0.000000001
43
0.0000000001
44
0.0000000001
40
0
40
0
40
0
40
1
40
1
40
1
10
2.4909082651138226
20
57.885454013943665
30
0
10
1.9890896081924359
20
58.387272670865052
30
0
10
1.6472724676132122
20
58.670907333493226
30
0
0
SPLINE
5
228
100
AcDbEntity
8
0
100
AcDbSpline
70
0
71
2
72
6
73
3
74
0
42
0.000000001
43
0.0000000001
44
0.0000000001
40
0
40
0
40
0
40
1
40
1
40
1
10
1.6472724676132122
20
58.670907333493226
30
0
10
1.5745440721511761
20
58.72908861935138
30
0
10
0.95636284351348078
20
59.17999775707721
30
0
0
SPLINE
5
229
100
AcDbEntity
8
0
100
AcDbSpline
70
0
71
2
72
6
73
3
74
0
42
0.000000001
43
0.0000000001
44
0.0000000001
40
0
40
0
40
0
40
1
40
1
40
1
10
0.95636284351348078
20
59.17999775707721
30
0
10
0.41090881824492609
20
59.587271526455872
30
0
10
0.30908977985381281
20
59.681816413998597
30
0
0
SPLINE
5
230
100
AcDbEntity
8
0
100
AcDbSpline
70
0
71
2
72
6
73
3
74
0
42
0.000000001
43
0.0000000001
44
0.0000000001
40
0
40
0
40
0
40
1
40
1
40
1
10
0.30908977985381281
20
59.681816413998597
30
0
10
0.05454456806182062
20
59.899998024106019
30
0
10
0.05454456806182062
20
60.089090183377259
30
0
0
SPLINE
5
231
100
AcDbEntity
8
0
100
AcDbSpline
70
0
71
2
72
6
73
3
74
0
42
0.000000001
43
0.0000000001
44
0.0000000001
40
0
40
0
40
0
40
1
40
1
40
1
10
0.05454456806182062
20
60.089090183377259
30
0
10
0.05454456806182062
20
60.205452755093567
30
0
10
0.15636241436003839
20
60.300000026822083
30
0
0
SPLINE
5
232
100
AcDbEntity
8
0
100
AcDbSpline
70
0
71
2
72
6
73
3
74
0
42
0.000000001
43
0.0000000001
44
0.0000000001
40
0
40
0
40
0
40
1
40
1
40
1
10
0.15636241436003839
20
60.300000026822083
30
0
10
0.25090849399565851
20
60.387270763516419
30
0
10
0.37454521656035578
20
60.387270763516419
30
0
0
SPLINE
5
233
100
AcDbEntity
8
0
100
AcDbSpline
70
0
71
2
72
6
73
3
74
0
42
0.000000001
43
0.0000000001
44
0.0000000001
40
0
40
0
40
0
40
1
40
1
40
1
10
0.37454521656035578
20
60.387270763516419
30
0
10
0.58545386791228449
20
60.387270763516419
30
0
10
1.079999566078178
20
60.096361950039856
30
0
0
SPLINE
5
234
100
AcDbEntity
8
0
100
AcDbSpline
70
0
71
2
72
6
73
3
74
0
42
0.000000001
43
0.0000000001
44
0.0000000001
40
0
40
0
40
0
40
1
40
1
40
1
10
1.079999566078178
20
60.096361950039856
30
0
10
1.6836360692977825
20
59.74727185070514
30
0
10
2.2072724103927532
20
59.456363037228577
30
0
0
SPLINE
5
235
100
AcDbEntity
8
0
100
AcDbSpline
70
0
71
2
72
6
73
3
74
0
42
0.000000001
43
0.0000000001
44
0.0000000001
40
0
40
0
40
0
40
1
40
1
40
1
10
2.2072724103927532
20
59.456363037228577
30
0
10
3.0218175649642864
20
58.998179748654358
30
0
10
3.6618176698684612
20
58.750908687710755
30
0
0
SPLINE
5
236
100
AcDbEntity
8
0
100
AcDbSpline
70
0
71
2
72
6
73
3
74
0
42
0.000000001
43
0.0000000001
44
0.0000000001
40
0
40
0
40
0
40
1
40
1
40
1
10
3.6618176698684612
20
58.750908687710755
30
0
10
3.3927265405654827
20
59.216363742947571
30
0
10
2.9999986886978069
20
59.601817443966858
30
0
0
SPLINE
5
237
100
AcDbEntity
8
0
100
AcDbSpline
70
0
71
2
72
6
73
3
74
0
42
0.000000001
43
0.0000000001
44
0.0000000001
40
0
40
0
40
0
40
1
40
1
40
1
10
2.9999986886978069
20
59.601817443966858
30
0
10
2.3454538583755413
20
60.256362274289124
30
0
10
2.0254532098770062
20
60.401816681027405
30
0
0
SPLINE
5
238
100
AcDbEntity
8
0
100
AcDbSpline
70
0
71
2
72
6
73
3
74
0
42
0.000000001
43
0.0000000001
44
0.0000000001
40
0
40
0
40
0
40
1
40
1
40
1
10
2.0254532098770062
20
60.401816681027405
30
0
10
1.7345443964004437
20
60.539999321103089
30
0
10
1.7345443964004437
20
60.68545372784137
30
0
0
SPLINE
5
239
100
AcDbEntity
8
0
100
AcDbSpline
70
0
71
2
72
6
73
3
74
0
42
0.000000001
43
0.0000000001
44
0.0000000001
40
0
40
0
40
0
40
1
40
1
40
1
10
1.7345443964004437
20
60.68545372784137
30
0
10
1.7345443964004437
20
60.889089420437806
30
0
10
1.9381812810897747
20
60.889089420437806
30
0
0
SPLINE
5
240
100
AcDbEntity
8
0
100
AcDbSpline
70
0
71
2
72
6
73
3
74
0
42
0.000000001
43
0.0000000001
44
0.0000000001
40
0
40
0
40
0
40
1
40
1
40
1
10
1.9381812810897747
20
60.889089420437806
30
0
10
2.3236349821090618
20
60.889089420437806
30
0
10
3.0872718095779339
20
60.23454459011554
30
0
0
SPLINE
5
241
100
AcDbEntity
8
0
100
AcDbSpline
70
0
71
2
72
6
73
3
74
0
42
0.000000001
43
0.0000000001
44
0.0000000001
40
0
40
0
40
0
40
1
40
1
40
1
10
3.0872718095779339
20
60.23454459011554
30
0
10
4.0036360025405804
20
59.449088886380189
30
0
10
4.6436349153518597
20
58.299997165799134
30
0
0
SPLINE
5
242
100
AcDbEntity
8
0
100
AcDbSpline
70
0
71
2
72
6
73
3
74
0
42
0.000000001
43
0.0000000001
44
0.0000000001
40
0
40
0
40
0
40
1
40
1
40
1
10
4.6436349153518597
20
58.299997165799134
30
0
10
6.1127272844314495
20
57.689090088009827
30
0
10
7.0799986124038616
20
57.143633678555481
30
0
0
SPLINE
5
243
100
AcDbEntity
8
0
100
AcDbSpline
70
0
71
2
72
6
73
3
74
0
42
0.000000001
43
0.0000000001
44
0.0000000001
40
0
40
0
40
0
40
1
40
1
40
1
10
7.0799986124038616
20
57.143633678555481
30
0
10
8.8618174791335989
20
56.125452831387513
30
0
10
8.8618174791335989
20
55.041816547513001
30
0
0
SPLINE
5
244
100
AcDbEntity
8
0
100
AcDbSpline
70
0
71
2
72
6
73
3
74
0
42
0.000000001
43
0.0000000001
44
0.0000000001
40
0
40
0
40
0
40
1
40
1
40
1
10
8.8618174791335989
20
55.041816547513001
30
0
10
8.8618174791335989
20
54.59818156063556
30
0
10
8.5199991464614797
20
54.32908804714679
30
0
0
SPLINE
5
245
100
AcDbEntity
8
0
100
AcDbSpline
70
0
71
2
72
6
73
3
74
0
42
0.000000001
43
0.0000000001
44
0.0000000001
40
0
40
0
40
0
40
1
40
1
40
1
10
8.5199991464614797
20
54.32908804714679
30
0
10
8.2581821680068899
20
54.118180587887757
30
0
10
7.8581801652908245
20
54.118180587887757
30
0
0
SPLINE
5
246
100
AcDbEntity
8
0
100
AcDbSpline
70
0
71
2
72
6
73
3
74
0
42
0.000000001
43
0.0000000001
44
0.0000000001
40
0
40
0
40
0
40
1
40
1
40
1
10
7.8581801652908245
20
54.118180587887757
30
0
10
6.7236343622207562
20
54.118180587887757
30
0
10
5.5381814241409222
20
55.710907295346253
30
0
0
SPLINE
5
247
100
AcDbEntity
8
0
100
AcDbSpline
70
0
71
2
72
6
73
3
74
0
42
0.000000001
43
0.0000000001
44
0.0000000001
40
0
40
0
40
0
40
1
40
1
40
1
10
5.5381814241409222
20
55.710907295346253
30
0
10
5.1890901327133099
20
56.176362350583069
30
0
10
4.6654537916183392
20
57.092726543545716
30
0
0
SPLINE
5
248
100
AcDbEntity
8
0
100
AcDbSpline
70
0
71
2
72
6
73
3
74
0
42
0.000000001
43
0.0000000001
44
0.0000000001
40
0
40
0
40
0
40
1
40
1
40
1
10
4.6654537916183392
20
57.092726543545716
30
0
10
4.4545451402664105
20
57.463634327054017
30
0
10
4.32363545894622
20
57.674544170498841
30
0
0
SPLINE
5
249
100
AcDbEntity
8
0
100
AcDbSpline
70
0
71
2
72
6
73
3
74
0
42
0.000000001
43
0.0000000001
44
0.0000000001
40
0
40
0
40
0
40
1
40
1
40
1
10
4.32363545894622
20
57.674544170498841
30
0
10
3.9890900850295941
20
57.805452659726136
30
0
10
3.4363631010055462
20
58.074543789029114
30
0
0
SPLINE
5
250
100
AcDbEntity
8
0
100
AcDbSpline
70
0
71
2
72
6
73
3
74
0
42
0.000000001
43
0.0000000001
44
0.0000000001
40
0
40
0
40
0
40
1
40
1
40
1
10
3.4363631010055462
20
58.074543789029114
30
0
10
2.8399995565414349
20
58.372724369168274
30
0
10
2.3599985837936321
20
58.598180130124085
30
0
0
SPLINE
5
251
100
AcDbEntity
8
0
100
AcDbSpline
70
0
71
2
72
6
73
3
74
0
42
0.000000001
43
0.0000000001
44
0.0000000001
40
0
40
0
40
0
40
1
40
1
40
1
10
5.218180775642387
20
57.259998634457581
30
0
10
5.6109086275100628
20
56.489088848233216
30
0
10
6.3381806612014691
20
55.681817844510071
30
0
0
SPLINE
5
252
100
AcDbEntity
8
0
100
AcDbSpline
70
0
71
2
72
6
73
3
74
0
42
0.000000001
43
0.0000000001
44
0.0000000001
40
0
40
0
40
0
40
1
40
1
40
1
10
6.3381806612014691
20
55.681817844510071
30
0
10
7.0872727632522503
20
54.867270305752747
30
0
10
7.7345434427261273
20
54.867270305752747
30
0
0
SPLINE
5
253
100
AcDbEntity
8
0
100
AcDbSpline
70
0
71
2
72
6
73
3
74
0
42
0.000000001
43
0.0000000001
44
0.0000000001
40
0
40
0
40
0
40
1
40
1
40
1
10
7.7345434427261273
20
54.867270305752747
30
0
10
7.8727260828018109
20
54.867270305752747
30
0
10
7.9672709703445355
20
54.947271659970276
30
0
0
SPLINE
5
254
100
AcDbEntity
8
0
100
AcDbSpline
70
0
71
2
72
6
73
3
74
0
42
0.000000001
43
0.0000000001
44
0.0000000001
40
0
40
0
40
0
40
1
40
1
40
1
10
7.9672709703445355
20
54.947271659970276
30
0
10
8.0981794595718313
20
55.056362465023987
30
0
10
8.0981794595718313
20
55.23090632259845
30
0
0
SPLINE
5
255
100
AcDbEntity
8
0
100
AcDbSpline
70
0
71
2
72
6
73
3
74
0
42
0.000000001
43
0.0000000001
44
0.0000000001
40
0
40
0
40
0
40
1
40
1
40
1
10
8.0981794595718313
20
55.23090632259845
30
0
10
8.0981794595718313
20
55.776362732052796
30
0
10
6.9563618898391644
20
56.43818171322345
30
0
0
SPLINE
5
256
100
AcDbEntity
8
0
100
AcDbSpline
70
0
71
2
72
6
73
3
74
0
42
0.000000001
43
0.0000000001
44
0.0000000001
40
0
40
0
40
0
40
1
40
1
40
1
10
6.9563618898391644
20
56.43818171322345
30
0
10
6.7672721147537152
20
56.547272518277161
30
0
10
5.6981805562972943
20
57.034542873501771
30
0
0
SPLINE
5
257
100
AcDbEntity
8
0
100
AcDbSpline
70
0
71
2
72
6
73
3
74
0
42
0.000000001
43
0.0000000001
44
0.0000000001
40
0
40
0
40
0
40
1
40
1
40
1
10
5.6981805562972943
20
57.034542873501771
30
0
10
5.4799989461898724
20
57.136361911892884
30
0
10
5.218180775642387
20
57.259998634457581
30
0
0
ENDSEC
0
SECTION
2
OBJECTS
0
DICTIONARY
5
C
100
AcDbDictionary
3
ACAD_GROUP
350
D
3
ACAD_MLINESTYLE
350
17
0
DICTIONARY
5
D
100
AcDbDictionary
0
DICTIONARY
5
1A
330
C
100
AcDbDictionary
0
DICTIONARY
5
17
100
AcDbDictionary
0
ENDSEC
0
EOF
